# xmcd
#
# Track frame offsets: 
#        150
#        5192
#        24985
#        43991
#        63288
#        83511
#        102053
#        121576
#        140383
#        160001
#        179104
#        199549
#        218555
#        237675
#        255867
#        276616
#
# Disc length: 3948 seconds
#
# Revision: 0
# Processed by: cddbd v1.5.2PL0 Copyright (c) Steve Scherf et al.
# Submitted via: ExactAudioCopy v0.95a5
#
DISCID=d80f6a10
DTITLE=Let's Jam - More Blues and Rock
DYEAR=2007
DGENRE=Blues
TTITLE0=Tuning
TTITLE1=Walk'n In A
TTITLE2=Not Too Excited
TTITLE3=Old Style In D
TTITLE4=Simple Blues in G
TTITLE5=Blues Ballad In Eb
TTITLE6=E Bluesy Rock
TTITLE7=Gm Blues
TTITLE8=Blues In Bb
TTITLE9=Am Strut
TTITLE10=Big Blues In G
TTITLE11=Dm Turns
TTITLE12=Hyper Blues In E
TTITLE13=Hyper Blues In B
TTITLE14=Hyper Blues In F
TTITLE15=D Rock Groove
EXTD=
EXTT0=
EXTT1=
EXTT2=
EXTT3=
EXTT4=
EXTT5=
EXTT6=
EXTT7=
EXTT8=
EXTT9=
EXTT10=
EXTT11=
EXTT12=
EXTT13=
EXTT14=
EXTT15=
PLAYORDER=
